# xmcd
#
# Track frame offsets:
# 150
# 19907
# 33668
# 50018
# 61681
# 78625
# 93522
# 108406
# 126504
# 138904
# 154210
# 170014
# 188447
#
# Disc length: 2713 seconds
#
#
# Revision: 2
# Processed by: cddbd v1.5.1PL2 Copyright (c) Steve Scherf et al.
# Submitted via: FreeRIP 2.944 
#
DISCID=b10a970d
DTITLE=Gilberto e Gilmar - Foto 3x4
DYEAR=2005
DGENRE=Sertanejo
TTITLE0=Um Pedacinho Do Seu Coração
TTITLE1=Demorô
TTITLE2=Foto 3x4
TTITLE3=Nóis Gosta De Muié
TTITLE4=Pra Mim Ela Morreu
TTITLE5=Paixão Maluca
TTITLE6=F. U. I. - Fui
TTITLE7=Gosto De Bombom
TTITLE8=Eu Hoje Não Tô Bom
TTITLE9=Quarto De Mansão
TTITLE10=Cunhado
TTITLE11=Casal Nota Mil
TTITLE12=Fazer Amor Sem Ter Você
EXTD=
EXTT0=
EXTT1=
EXTT2=
EXTT3=
EXTT4=
EXTT5=
EXTT6=
EXTT7=
EXTT8=
EXTT9=
EXTT10=
EXTT11=
EXTT12=
PLAYORDER=
